<?xml version="1.0" encoding="UTF-8" standalone="no"?>
<!-- Created with Inkscape (http://www.inkscape.org/) -->

<svg
   xmlns:dc="http://purl.org/dc/elements/1.1/"
   xmlns:cc="http://creativecommons.org/ns#"
   xmlns:rdf="http://www.w3.org/1999/02/22-rdf-syntax-ns#"
   xmlns:svg="http://www.w3.org/2000/svg"
   xmlns="http://www.w3.org/2000/svg"
   xmlns:sodipodi="http://sodipodi.sourceforge.net/DTD/sodipodi-0.dtd"
   xmlns:inkscape="http://www.inkscape.org/namespaces/inkscape"
   version="1.1"
   id="svg2"
   xml:space="preserve"
   width="666.66669"
   height="666.66669"
   viewBox="0 0 666.66669 666.66669"
   sodipodi:docname="logo-tienda.svg"
   inkscape:version="0.92.3 (2405546, 2018-03-11)"><metadata
     id="metadata8"><rdf:RDF><cc:Work
         rdf:about=""><dc:format>image/svg+xml</dc:format><dc:type
           rdf:resource="http://purl.org/dc/dcmitype/StillImage" /><dc:title></dc:title></cc:Work></rdf:RDF></metadata><defs
     id="defs6"><clipPath
       clipPathUnits="userSpaceOnUse"
       id="clipPath24"><path
         d="M 5000,380.781 H 2500 V 2690.39 h 2500 z"
         id="path22"
         inkscape:connector-curvature="0" /></clipPath><radialGradient
       fx="0"
       fy="0"
       cx="0"
       cy="0"
       r="1"
       gradientUnits="userSpaceOnUse"
       gradientTransform="matrix(1591.05,0,0,-1591.05,3750,1535.59)"
       spreadMethod="pad"
       id="radialGradient30"><stop
         style="stop-opacity:1;stop-color:#ffffff"
         offset="0"
         id="stop26" /><stop
         style="stop-opacity:1;stop-color:#e8e8e9"
         offset="1"
         id="stop28" /></radialGradient><clipPath
       clipPathUnits="userSpaceOnUse"
       id="clipPath40"><path
         d="M 2500,2690.39 H 0 V 5000 h 2500 z"
         id="path38"
         inkscape:connector-curvature="0" /></clipPath><radialGradient
       fx="0"
       fy="0"
       cx="0"
       cy="0"
       r="1"
       gradientUnits="userSpaceOnUse"
       gradientTransform="matrix(1597.05,0,0,-1597.05,1250,3845.2)"
       spreadMethod="pad"
       id="radialGradient46"><stop
         style="stop-opacity:1;stop-color:#ffffff"
         offset="0"
         id="stop42" /><stop
         style="stop-opacity:1;stop-color:#e8e8e9"
         offset="1"
         id="stop44" /></radialGradient></defs><sodipodi:namedview
     pagecolor="#ffffff"
     bordercolor="#666666"
     borderopacity="1"
     objecttolerance="10"
     gridtolerance="10"
     guidetolerance="10"
     inkscape:pageopacity="0"
     inkscape:pageshadow="2"
     inkscape:window-width="1366"
     inkscape:window-height="684"
     id="namedview4"
     showgrid="false"
     inkscape:zoom="0.35399999"
     inkscape:cx="333.33334"
     inkscape:cy="333.33334"
     inkscape:window-x="0"
     inkscape:window-y="28"
     inkscape:window-maximized="1"
     inkscape:current-layer="g10" /><g
     id="g10"
     inkscape:groupmode="layer"
     inkscape:label="ink_ext_XXXXXX"
     transform="matrix(1.3333333,0,0,-1.3333333,0,666.66667)"><path
       inkscape:connector-curvature="0"
       id="path14"
       style="fill:#ffffff;fill-opacity:1;fill-rule:nonzero;stroke:none;stroke-width:0.1"
       d="M 502.11864,-2.1186407 H 2.1186527 V 497.88136 H 502.11864 V -2.1186407" /><g
       id="g502"
       transform="translate(557.20342,2.1186446)"><ellipse
         ry="247.77585"
         rx="246.72223"
         transform="scale(1,-1)"
         cy="-245.28336"
         cx="-306.76141"
         id="path423"
         style="fill:#ffffff;fill-opacity:1;fill-rule:evenodd;stroke:#060000;stroke-width:1.24300826;stroke-miterlimit:4;stroke-dasharray:none;stroke-opacity:1" /></g><path
       inkscape:connector-curvature="0"
       id="path98"
       style="fill:#241f1c;fill-opacity:1;fill-rule:nonzero;stroke:none;stroke-width:0.29523551"
       d="m 252.097,216.24751 c -39.91829,0 -72.39455,38.59386 -72.39455,86.03234 0,47.43849 32.47626,86.03234 72.39455,86.03234 20.56035,0 40.22702,-10.44747 53.95197,-28.66779 0.79891,-1.05891 0.72579,-2.68429 -0.1679,-3.63376 -0.88828,-0.94304 -2.25861,-0.86258 -3.05752,0.20277 -12.90709,17.126 -31.39299,26.95229 -50.72655,26.95229 -37.5324,0 -68.06149,-36.28614 -68.06149,-80.88585 0,-44.5997 30.52909,-80.88584 68.06149,-80.88584 37.52969,0 68.0642,36.28614 68.0642,80.88584 0,7.94987 -0.9614,15.78064 -2.85982,23.27669 -0.34394,1.36146 0.30602,2.79372 1.44887,3.2057 1.15367,0.40232 2.35339,-0.36048 2.69732,-1.72516 2.02029,-7.97561 3.04668,-16.30527 3.04668,-24.75723 0,-47.43848 -32.47626,-86.03234 -72.39725,-86.03234" /><path
       inkscape:connector-curvature="0"
       id="path100"
       style="fill:#241f1c;fill-opacity:1;fill-rule:nonzero;stroke:none;stroke-width:0.29523551"
       d="m 252.11867,235.16948 c -24.81217,-0.003 -47.61488,19.6043 -54.48007,49.37928 -4.21119,18.28791 -1.6926,37.93083 6.9031,53.90459 0.64996,1.20052 1.98779,1.54491 2.99252,0.77889 1.00473,-0.76602 1.30262,-2.35599 0.65808,-3.5533 -7.94032,-14.74748 -10.26393,-32.88733 -6.37501,-49.76873 7.59639,-32.94848 36.3381,-52.41117 64.05883,-43.3863 27.72886,9.0313 44.10781,43.18031 36.51413,76.12558 -7.59639,32.95171 -36.32727,52.41439 -64.06695,43.38953 -1.15097,-0.3798 -2.34256,0.4345 -2.65942,1.80239 -0.31144,1.37111 0.3656,2.78407 1.51928,3.16064 30.02808,9.77479 61.15568,-11.30361 69.38578,-46.99432 8.22468,-35.68105 -9.51648,-72.66562 -39.54998,-82.44685 -4.97218,-1.61894 -9.97415,-2.3914 -14.90029,-2.3914" /><path
       inkscape:connector-curvature="0"
       id="path102"
       style="fill:#241f1c;fill-opacity:1;fill-rule:nonzero;stroke:none;stroke-width:0.29523551"
       d="m 270.42583,301.98696 c -9.09671,0 -16.4602,8.76417 -16.4602,19.5689 0,6.90061 3.01418,12.93543 7.55306,16.41792 -2.99522,1.12328 -6.11503,1.89252 -9.42169,1.89252 -17.47576,0 -31.62861,-16.82668 -31.62861,-37.58645 0,-20.75333 14.15285,-37.58322 31.62861,-37.58322 17.46764,0 31.6259,16.82989 31.6259,37.58322 0,2.38496 -0.2329,4.70233 -0.59309,6.9682 -3.01418,-4.39334 -7.55847,-7.26109 -12.70398,-7.26109" /><path
       inkscape:connector-curvature="0"
       id="path104"
       style="fill:#241f1c;fill-opacity:1;fill-rule:nonzero;stroke:none;stroke-width:0.29523551"
       d="M 259.3657,399.12658 H 244.83101 V 418.6987 H 259.3657 V 399.12658" /><path
       inkscape:connector-curvature="0"
       id="path106"
       style="fill:#241f1c;fill-opacity:1;fill-rule:nonzero;stroke:none;stroke-width:0.29523551"
       d="M 340.11222,428.55717 H 164.08178 c -2.24235,0 -4.06224,2.15966 -4.06224,4.82786 0,2.66819 1.81989,4.82785 4.06224,4.82785 h 176.03044 c 2.24506,0 4.06224,-2.15966 4.06224,-4.82785 0,-2.6682 -1.81718,-4.82786 -4.06224,-4.82786" /><g
       id="g108"
       transform="matrix(2.7081605,0,0,3.2185686,-761.0448,-968.88416)"
       style="fill:#241f1c"><text
         id="text112"
         style="font-variant:normal;font-weight:normal;font-size:21.7652607px;font-family:QuicksandBold;-inkscape-font-specification:QuicksandBold-Regular;writing-mode:lr-tb;fill:#241f1c;fill-opacity:1;fill-rule:nonzero;stroke:none"
         transform="matrix(1,0,0,-0.90909091,304.69,343.12)"><tspan
           id="tspan110"
           sodipodi:role="line"
           y="0"
           x="0 16.554672 33.99894 48.009613">CUTE</tspan></text>
<text
         id="text116"
         style="font-variant:normal;font-weight:normal;font-size:21.7652607px;font-family:QuicksandBook;-inkscape-font-specification:QuicksandBook-Regular;writing-mode:lr-tb;fill:#241f1c;fill-opacity:1;fill-rule:nonzero;stroke:none"
         transform="matrix(1,0,0,-0.90909091,366.02622,343.12)"><tspan
           id="tspan114"
           sodipodi:role="line"
           y="0"
           x="0 15.74119 29.242157 47.754787 64.587753">DRONE</tspan></text>
</g><path
       inkscape:connector-curvature="0"
       id="path118"
       style="fill:#241f1c;fill-opacity:1;fill-rule:nonzero;stroke:none;stroke-width:0.29523551"
       d="M 144.90801,103.84544 H 72.692201 v 2.14357 h 72.215809 v -2.14357" /><path
       inkscape:connector-curvature="0"
       id="path120"
       style="fill:#241f1c;fill-opacity:1;fill-rule:nonzero;stroke:none;stroke-width:0.29523551"
       d="m 423.8025,103.84544 h -72.21581 v 2.14357 h 72.21581 v -2.14357" /><g
       id="g122"
       transform="matrix(2.7081605,0,0,3.2185686,-761.0448,-968.88416)"
       style="fill:#241f1c"><text
         id="text126"
         style="font-variant:normal;font-weight:normal;font-size:5.74041986px;font-family:OpenSans;-inkscape-font-specification:OpenSans;writing-mode:lr-tb;fill:#241f1c;fill-opacity:1;fill-rule:nonzero;stroke:none"
         transform="matrix(0.9,0,0,-1,338.039,331.715)"><tspan
           id="tspan124"
           sodipodi:role="line"
           y="0"
           x="0 4.9370713 10.126967 15.372179 19.436844 22.650814 27.548815 32.463093 37.329624 40.504524 43.678341 48.92355 53.866013 57.078896 63.037003 67.979492 72.045242">Your Tagline Here</tspan></text>
</g></g></svg>